<svg data-v-423bf9ae="" xmlns="http://www.w3.org/2000/svg" viewBox="0 0 382 107" class="iconLeft"><!----><!----><!----><g data-v-423bf9ae="" id="351a6266-4c0c-4fa2-8154-60b74de26ff5" fill="black" transform="matrix(6.0301508693628145,0,0,6.0301508693628145,99.3016115657152,18.931025245935245)"><path d="M6.52 10.50L9.20 10.50L9.31 9.91L8.09 9.44L5.54 5.64L4.52 5.19L7.32 2.34C7.73 1.93 8.13 1.67 8.67 1.46L9.11 1.27L9.02 0.70L5.92 0.70L5.82 1.27L7.04 1.75L3.78 5.08L3.78 5.67L6.62 9.91ZM3.19 1.75L4.41 1.29L4.31 0.70L0.59 0.70L0.49 1.27L1.71 1.75L1.71 9.45L0.49 9.90L0.59 10.50L4.31 10.50L4.41 9.90L3.19 9.45ZM13.38 3.81C11.31 3.81 10.09 5.12 10.09 7.22C10.09 9.32 11.17 10.65 13.38 10.65C15.61 10.65 16.67 9.38 16.67 7.22C16.67 5.07 15.46 3.81 13.38 3.81ZM13.38 4.33C14.56 4.33 15.32 5.39 15.32 7.18C15.32 8.96 14.57 10.14 13.38 10.14C12.19 10.14 11.45 8.95 11.45 7.18C11.45 5.42 12.22 4.33 13.38 4.33ZM19.25 0.74C18.83 0.74 18.49 1.08 18.49 1.50C18.49 1.92 18.83 2.25 19.25 2.25C19.66 2.25 20.01 1.92 20.01 1.50C20.01 1.08 19.66 0.74 19.25 0.74ZM19.95 4.47C19.95 4.47 19.96 3.81 19.19 3.81C18.73 3.81 18.12 3.91 17.79 3.96L17.79 4.47L18.63 4.47L18.63 10.50L19.95 10.50ZM23.77 4.47C23.77 4.47 23.79 3.81 23.02 3.81C22.55 3.81 21.94 3.91 21.62 3.96L21.62 4.47L22.46 4.47L22.46 10.50L23.77 10.50L23.77 7.39C23.77 5.32 24.81 4.47 25.52 4.47C26.22 4.47 26.66 5.05 26.66 5.95L26.66 9.38C26.66 10.36 27.34 10.65 27.86 10.65C28.24 10.65 28.60 10.60 28.80 10.50L28.80 10.00C28.36 10.00 27.97 9.79 27.97 9.35L27.97 6.30C27.97 4.76 27.33 3.81 25.80 3.81C25.07 3.81 24.12 4.45 23.77 5.43ZM31.65 2.34L31.01 2.18L30.42 3.65L29.43 3.96L29.53 4.47L30.34 4.47L30.34 8.85C30.34 9.87 30.90 10.65 32.19 10.65C32.98 10.65 33.39 10.33 33.85 9.84L33.53 9.46C33.24 9.79 32.93 10.00 32.42 10.00C32.00 10.00 31.65 9.62 31.65 8.96L31.65 4.47L33.39 4.47L33.49 3.96L31.65 3.96ZM37.70 3.81C35.63 3.81 34.41 5.12 34.41 7.22C34.41 9.32 35.49 10.65 37.70 10.65C39.93 10.65 40.99 9.38 40.99 7.22C40.99 5.07 39.77 3.81 37.70 3.81ZM37.70 4.33C38.88 4.33 39.63 5.39 39.63 7.18C39.63 8.96 38.89 10.14 37.70 10.14C36.51 10.14 35.77 8.95 35.77 7.18C35.77 5.42 36.54 4.33 37.70 4.33ZM44.60 4.33C45.00 4.33 45.32 4.40 45.57 4.49L46.00 5.64C46.40 5.64 46.72 5.32 46.72 4.94C46.72 4.16 45.71 3.81 44.67 3.81C43.15 3.81 42.15 4.54 42.15 5.67C42.15 6.78 42.99 7.25 43.93 7.69C44.72 8.04 45.70 8.37 45.70 9.06C45.70 9.73 45.05 10.12 44.16 10.12C43.86 10.12 43.39 9.98 43.12 9.81L42.78 8.86C42.42 8.86 42.11 9.13 42.11 9.49C42.11 10.29 42.85 10.65 44.27 10.65C45.89 10.65 46.82 9.88 46.82 8.69C46.82 7.46 45.75 6.99 44.76 6.57C44.10 6.29 43.26 5.94 43.26 5.19C43.26 4.72 43.78 4.33 44.60 4.33Z"></path></g><!----><g data-v-423bf9ae="" id="39420fbd-ebce-4a34-bef4-65cc143edb4e" transform="matrix(1.0868111504448785,0,0,1.0868111504448785,-13.255261890115804,-0.23894260335429607)" stroke="none" fill="black"><g clip-rule="evenodd"><path d="M12.983 10.59l17.018 88.223-5.872-59.049 29.021-1.892-.054-9.883L64.549 1 53.622 18.977z"></path><path d="M59.389 54.548l5.16-53.541-8.74 39.716-19.612 1.045 1.57 20.462-7.766 36.583 12.057-39.899z"></path><path d="M62.8 67.182l.549-10.453-15.979 3.755-.032 11.797-17.337 26.532 21.68-27.616zM65.711 62.394l14.841-4.731 1.509-12.532-15.899 2.095zM72.07 44.502l10.988-1.417 1.581-10.278-8.079-.373L64.549 1l8.43 30.967z"></path><path d="M87.413 31.294l1.256-9.506-9.544-2.694L64.549 1l14.483 22.437-.422 7z"></path></g></g><!----></svg>